# Blender v3.1.2 OBJ File: 'tavoloWall.blend'
# www.blender.org
mtllib wall.mtl
o Plane
v -3.035563 0.000000 3.016556
v 3.055028 0.000000 3.016556
v -3.035563 0.000000 -3.043774
v 3.055028 0.000000 -3.043774
l 3 1
l 1 2
l 2 4
l 4 3
o Plane.001
v -3.035563 0.000000 -3.043774
v -3.035563 -0.000000 3.016556
v 3.055028 -0.000000 3.016556
v 3.055028 0.000000 -3.043774
l 7 8
l 5 6
l 6 7
l 8 5
o Cube.002_Cube.003
v 3.002932 -0.005076 -2.911502
v 3.002932 -0.005076 -3.013414
v 3.002932 3.830722 -3.013414
v 3.002932 3.830722 -2.911502
v -2.903919 -0.005076 -3.013412
v -2.903919 3.830722 -3.013412
v -2.903919 -0.005076 -2.911500
v -2.903919 3.830722 -2.911500
v 3.005407 0.000252 3.043091
v 3.005407 0.000252 2.941179
v 3.005407 3.836050 2.941179
v 3.005407 3.836050 3.043091
v -2.901444 0.000252 2.941181
v -2.901444 3.836050 2.941181
v -2.901444 0.000252 3.043093
v -2.901444 3.836050 3.043093
v -2.895492 0.008941 2.983710
v -2.793581 0.008941 2.983337
v -2.793581 3.844739 2.983337
v -2.895492 3.844739 2.983710
v -2.815164 0.008941 -2.923475
v -2.815164 3.844739 -2.923475
v -2.917075 0.008941 -2.923103
v -2.917075 3.844739 -2.923103
vt 0.999984 0.000017
vt 0.999984 0.026655
vt 0.000016 0.026659
vt 0.000016 0.000016
vt 0.000081 0.000081
vt 0.999919 0.000081
vt 0.999919 0.651093
vt 0.000081 0.651093
vt 0.999984 0.000017
vt 0.999984 0.026655
vt 0.000017 0.026659
vt 0.000016 0.000016
vt 0.647626 0.000080
vt 0.647626 0.999919
vt 0.000080 0.999919
vt 0.000080 0.000080
vt 0.017421 0.999987
vt 0.000013 0.999983
vt 0.000013 0.000013
vt 0.017421 0.000017
vt 0.017421 0.000017
vt 0.017421 0.999987
vt 0.000013 0.999983
vt 0.000020 0.000016
vt 0.026517 0.000016
vt 0.026517 0.999984
vt 0.000016 0.999984
vt 0.000081 0.999919
vt 0.000080 0.000080
vt 0.647626 0.000080
vt 0.647626 0.999919
vt 0.999984 0.000017
vt 0.999984 0.026655
vt 0.000016 0.026659
vt 0.000016 0.000016
vt 0.647626 0.000080
vt 0.647626 0.999919
vt 0.000080 0.999919
vt 0.000081 0.000080
vt 0.017421 0.999987
vt 0.000013 0.999983
vt 0.000013 0.000013
vt 0.017421 0.000017
vt 0.017421 0.000017
vt 0.017421 0.999987
vt 0.000013 0.999983
vt 0.375000 0.000000
vt 0.375000 0.250000
vt 0.625000 0.250000
vt 0.625000 0.000000
vt 0.999919 0.651093
vt 0.000081 0.651093
vt 0.000081 0.000081
vt 0.999919 0.000081
vt 0.375000 0.500000
vt 0.375000 0.750000
vt 0.625000 0.750000
vt 0.625000 0.500000
vt 0.000080 0.999919
vt 0.000080 0.000080
vt 0.647625 0.000080
vt 0.647626 0.999919
vt 0.000013 0.000013
vt 0.017421 0.000017
vt 0.017421 0.999987
vt 0.000013 0.999983
vt 0.017421 0.999987
vt 0.000013 0.999983
vt 0.000013 0.000013
vt 0.017421 0.000017
vn 0.5774 -0.5774 0.5774
vn 0.5774 -0.5774 -0.5774
vn 0.5774 0.5774 -0.5774
vn 0.5774 0.5774 0.5774
vn -0.5774 -0.5774 -0.5774
vn -0.5774 0.5774 -0.5774
vn -0.5774 -0.5774 0.5774
vn -0.5774 0.5774 0.5774
vn -0.5752 -0.5774 0.5795
vn 0.5795 -0.5774 0.5752
vn 0.5795 0.5774 0.5752
vn -0.5752 0.5773 0.5795
vn 0.5752 -0.5774 -0.5795
vn 0.5752 0.5774 -0.5795
vn -0.5795 -0.5774 -0.5752
vn -0.5795 0.5774 -0.5752
g Cube.002_Cube.003_Cube.002_Cube.003_Material.015
usemtl Material.015
s 1
f 9/1/1 10/2/2 11/3/3 12/4/4
f 10/5/2 13/6/5 14/7/6 11/8/3
f 13/9/5 15/10/7 16/11/8 14/12/6
f 15/13/7 9/14/1 12/15/4 16/16/8
f 10/17/2 9/18/1 15/19/7 13/20/5
f 14/12/6 16/21/8 12/22/4 11/23/3
f 17/24/1 18/25/2 19/26/3 20/27/4
f 18/28/2 21/29/5 22/30/6 19/31/3
f 21/32/5 23/33/7 24/34/8 22/35/6
f 23/36/7 17/37/1 20/38/4 24/39/8
f 18/40/2 17/41/1 23/42/7 21/43/5
f 22/35/6 24/44/8 20/45/4 19/46/3
f 25/47/9 26/48/10 27/49/11 28/50/12
f 26/51/10 29/52/13 30/53/14 27/54/11
f 29/55/13 31/56/15 32/57/16 30/58/14
f 31/59/15 25/60/9 28/61/12 32/62/16
f 26/63/10 25/64/9 31/65/15 29/66/13
f 30/67/14 32/68/16 28/69/12 27/70/11
