# Blender v3.1.2 OBJ File: 'tavoloWall.blend'
# www.blender.org
mtllib pavimento.mtl
o Plane
v -3.035563 0.000000 3.016556
v 3.055028 0.000000 3.016556
v -3.035563 0.000000 -3.043774
v 3.055028 0.000000 -3.043774
l 3 1
l 1 2
l 2 4
l 4 3
o Cube.003_Cube.041
v 2.999552 3.812423 2.941179
v 2.999552 3.812423 3.043091
v 2.999552 -0.023375 3.043091
v 2.999552 -0.023375 2.941179
v -2.907299 -0.023375 2.941181
v -2.907299 3.812423 2.941181
v -2.907299 -0.023375 3.043093
v -2.907299 3.812423 3.043093
l 7 8
l 5 6
l 7 6
l 8 5
l 8 9
l 5 10
l 7 11
l 6 12
l 10 12
l 11 12
l 9 10
l 9 11
o Cube.003_Cube.042
v 2.999552 -0.023375 3.043091
v 2.999552 -0.023375 2.941179
v 2.999552 3.812423 2.941179
v 2.999552 3.812423 3.043091
v -2.907299 -0.023375 2.941181
v -2.907299 3.812423 2.941181
v -2.907299 -0.023375 3.043093
v -2.907299 3.812423 3.043093
l 15 16
l 13 14
l 14 15
l 13 16
l 14 17
l 17 18
l 17 19
l 19 20
l 15 18
l 18 20
l 16 20
l 13 19
o Plane.001_Plane.109
v -2.891998 0.000000 2.969593
v 2.925749 0.000000 2.969593
v -2.891998 0.000000 -2.970498
v 2.925749 0.000000 -2.970498
v -2.891998 -0.032141 -2.970498
v -2.891998 -0.032141 2.969593
v 2.925749 -0.032141 2.969593
v 2.925749 -0.032141 -2.970498
v 3.031252 0.000000 2.969593
v 3.031252 0.000000 -2.970498
v 3.031252 -0.032141 2.969593
v 3.031252 -0.032141 -2.970498
vt 0.000000 0.000000
vt 0.000000 1.000000
vt 1.000000 1.000000
vt 1.000000 0.000000
vt 0.000000 0.000000
vt 1.000000 0.000000
vt 1.000000 1.000000
vt 0.000000 1.000000
vt 1.000000 1.000000
vt 1.000000 1.000000
vt 1.000000 0.000000
vt 1.000000 0.000000
vn 0.0000 -1.0000 0.0000
vn 0.0000 1.0000 0.0000
vn 1.0000 0.0000 0.0000
vn 0.0000 0.0000 1.0000
vn 0.0000 0.0000 -1.0000
vn -1.0000 0.0000 0.0000
g Plane.001_Plane.109_Material.025
usemtl Material.025
s off
f 21/1/1 23/2/1 24/3/1 22/4/1
f 26/5/2 27/6/2 28/7/2 25/8/2
f 23/2/3 21/1/3 26/5/3 25/8/3
f 24/3/4 23/2/4 25/8/4 28/7/4
f 21/1/5 22/4/5 27/6/5 26/5/5
f 24/3/4 28/7/4 32/9/4 30/10/4
f 29/11/6 30/10/6 32/9/6 31/12/6
f 28/7/2 27/6/2 31/12/2 32/9/2
f 22/4/1 24/3/1 30/10/1 29/11/1
f 27/6/5 22/4/5 29/11/5 31/12/5
