# Blender v3.1.2 OBJ File: 'tavoloWall.blend'
# www.blender.org
mtllib finestra.mtl
o Plane
v -3.035563 0.000000 3.016556
v 3.055028 0.000000 3.016556
v -3.035563 0.000000 -3.043774
v 3.055028 0.000000 -3.043774
l 3 1
l 1 2
l 2 4
l 4 3
o Cube.003_Cube.001
v 2.999552 3.812423 2.941179
v 2.999552 3.812423 3.043091
v 2.999552 -0.023375 3.043091
v 2.999552 -0.023375 2.941179
v -2.907299 -0.023375 2.941181
v -2.907299 3.812423 2.941181
v -2.907299 -0.023375 3.043093
v -2.907299 3.812423 3.043093
l 7 8
l 5 6
l 7 6
l 8 5
l 8 9
l 5 10
l 7 11
l 6 12
l 10 12
l 11 12
l 9 10
l 9 11
o Cube.002
v -2.745260 3.257654 0.002201
v -2.746747 3.257654 1.751460
v -2.743488 3.185383 1.647918
v -2.743488 3.185383 0.175510
v -2.747033 3.257654 -1.674892
v -2.851348 3.257654 -1.674892
v -2.851348 3.257654 0.038284
v -2.746747 0.866124 1.751460
v -2.745260 0.866124 0.002201
v -2.743488 0.938394 0.175510
v -2.743488 0.938394 1.647918
v -2.851348 0.866124 -1.674892
v -2.747033 0.866124 -1.674892
v -2.851348 3.257654 1.751460
v -2.851348 0.866124 0.038284
v -2.851348 0.866124 1.751460
v -2.743488 3.179052 -1.562278
v -2.743488 0.944726 -1.562278
v -2.743488 0.944726 -0.166401
v -2.743488 3.179052 -0.166401
v -2.892789 3.108852 0.002209
v -2.892823 3.109496 1.602527
v -2.893488 3.182559 1.645696
v -2.893486 3.182321 0.176110
v -2.893155 3.109488 -1.525906
v -2.851348 3.107654 -1.524892
v -2.851348 3.107654 0.038284
v -2.892823 1.014282 1.602527
v -2.892789 1.014926 0.002209
v -2.893486 0.941456 0.176110
v -2.893488 0.941217 1.645696
v -2.851348 1.016124 -1.524892
v -2.893155 1.014289 -1.525907
v -2.851348 3.107654 1.601460
v -2.851348 1.016124 0.038284
v -2.851348 1.016124 1.601460
v -2.893487 3.176310 -1.560047
v -2.893487 0.947469 -1.560047
v -2.893486 0.947656 -0.167023
v -2.893486 3.176122 -0.167023
vt 0.627460 0.625768
vt 0.632555 0.750000
vt 0.617445 0.742445
vt 0.617445 0.632555
vt 0.633217 0.500000
vt 0.875000 0.500000
vt 0.875000 0.625000
vt 0.629108 0.625662
vt 0.367445 0.750000
vt 0.372540 0.625768
vt 0.382555 0.632555
vt 0.382555 0.742445
vt 0.375000 0.250000
vt 0.625000 0.250000
vt 0.625000 0.491783
vt 0.375000 0.491783
vt 0.875000 0.750000
vt 0.625000 0.757555
vt 0.375000 0.757555
vt 0.375000 0.625662
vt 0.625000 0.625662
vt 0.125000 0.625000
vt 0.370892 0.625662
vt 0.125000 0.750000
vt 0.625000 1.000000
vt 0.375000 1.000000
vt 0.616783 0.508217
vt 0.383217 0.508217
vt 0.383217 0.609228
vt 0.616783 0.609228
vt 0.366783 0.500000
vt 0.125000 0.500000
vt 0.627460 0.625768
vt 0.617445 0.632555
vt 0.617445 0.742445
vt 0.632555 0.750000
vt 0.633217 0.500000
vt 0.629108 0.625662
vt 0.875000 0.625000
vt 0.875000 0.500000
vt 0.367445 0.750000
vt 0.382555 0.742445
vt 0.382555 0.632555
vt 0.372540 0.625768
vt 0.375000 0.250000
vt 0.375000 0.491783
vt 0.625000 0.491783
vt 0.625000 0.250000
vt 0.875000 0.750000
vt 0.625000 0.757555
vt 0.375000 0.757555
vt 0.625000 0.625662
vt 0.375000 0.625662
vt 0.125000 0.625000
vt 0.125000 0.750000
vt 0.370892 0.625662
vt 0.375000 1.000000
vt 0.625000 1.000000
vt 0.616783 0.508217
vt 0.383217 0.508217
vt 0.383217 0.609228
vt 0.616783 0.609228
vt 0.366783 0.500000
vt 0.125000 0.500000
vn 0.9994 0.0350 0.0005
vn 0.0000 1.0000 0.0000
vn 0.9994 -0.0350 0.0005
vn 0.0000 0.0000 -1.0000
vn 0.9995 -0.0000 0.0315
vn 0.9999 -0.0000 -0.0102
vn -0.0000 -1.0000 -0.0000
vn 0.0000 -0.0000 1.0000
vn 0.9995 -0.0000 -0.0315
vn 0.9999 -0.0000 0.0105
vn 0.9994 -0.0340 -0.0006
vn 0.9994 0.0340 -0.0006
vn 1.0000 0.0093 0.0000
vn 0.0363 0.9993 0.0002
vn 0.0364 0.9993 0.0001
vn 0.0366 0.9993 -0.0001
vn 1.0000 -0.0093 0.0000
vn 0.0243 0.0000 -0.9997
vn 0.0367 0.9993 -0.0002
vn 0.9999 0.0000 0.0154
vn -1.0000 0.0000 -0.0040
vn 0.0366 -0.9993 -0.0001
vn 0.0367 -0.9993 -0.0002
vn 0.0364 -0.9993 0.0001
vn 0.0257 -0.0000 0.9997
vn 1.0000 0.0000 -0.0097
vn -1.0000 -0.0000 0.0041
vn 1.0000 -0.0075 -0.0001
vn 1.0000 0.0075 -0.0001
vn 0.0363 -0.9993 0.0002
vn -1.0000 -0.0000 0.0000
vn 0.0239 0.7077 0.7061
vn 0.0239 -0.7077 0.7061
vn 0.0239 -0.7061 0.7077
vn 0.0239 0.7061 0.7077
vn 0.0163 -0.7104 -0.7036
vn 0.0163 0.7104 -0.7036
vn 0.0162 0.7035 -0.7105
vn 0.0162 -0.7035 -0.7105
vn 0.0168 -0.7106 0.7034
vn 0.0243 -0.7078 -0.7060
vn 0.0243 -0.7060 -0.7078
vn 0.0166 -0.7032 0.7108
vn 0.0243 0.7078 -0.7060
vn 0.0243 0.7060 -0.7078
vn 0.0168 0.7106 0.7034
vn 0.0166 0.7032 0.7108
g Cube.002_Cube.002_Material.014
usemtl Material.014
s 1
f 13/1/1 14/2/1 15/3/1 16/4/1
f 17/5/2 18/6/2 19/7/2 13/8/2
f 20/9/3 21/10/3 22/11/3 23/12/3
f 24/13/4 18/14/4 17/15/4 25/16/4
f 13/8/2 19/7/2 26/17/2 14/2/2
f 14/18/5 20/19/5 23/12/5 15/3/5
f 16/4/6 22/11/6 21/20/6 13/21/6
f 27/22/7 21/23/7 20/9/7 28/24/7
f 20/19/8 14/18/8 26/25/8 28/26/8
f 29/27/9 30/28/9 25/16/9 17/15/9
f 31/29/10 32/30/10 13/21/10 21/20/10
f 21/23/11 25/31/11 30/28/11 31/29/11
f 17/5/12 13/8/12 32/30/12 29/27/12
f 24/32/7 25/31/7 21/23/7 27/22/7
f 33/33/13 36/34/13 35/35/13 34/36/13
f 37/37/14 33/38/15 39/39/16 38/40/14
f 40/41/17 43/42/17 42/43/17 41/44/17
f 44/45/18 45/46/18 37/47/18 38/48/18
f 33/38/15 34/36/19 46/49/19 39/39/16
f 34/50/20 35/35/20 43/42/20 40/51/20
f 36/34/21 33/52/21 41/53/21 42/43/21
f 47/54/22 48/55/23 40/41/23 41/56/24
f 40/51/25 48/57/25 46/58/25 34/50/25
f 49/59/26 37/47/26 45/46/26 50/60/26
f 51/61/27 41/53/27 33/52/27 52/62/27
f 41/56/28 51/61/28 50/60/28 45/63/28
f 37/37/29 49/59/29 52/62/29 33/38/29
f 44/64/30 47/54/22 41/56/24 45/63/30
f 19/7/31 18/6/31 38/40/31 39/39/31
f 18/14/31 24/13/31 44/45/31 38/48/31
f 26/17/31 19/7/31 39/39/31 46/49/31
f 27/22/31 28/24/31 48/55/31 47/54/31
f 30/28/32 29/27/33 49/59/34 50/60/35
f 32/30/36 31/29/37 51/61/38 52/62/39
f 24/32/31 27/22/31 47/54/31 44/64/31
f 16/4/40 15/3/41 35/35/42 36/34/43
f 28/26/31 26/25/31 46/58/31 48/57/31
f 15/3/41 23/12/44 43/42/45 35/35/42
f 22/11/46 16/4/40 36/34/43 42/43/47
f 31/29/37 30/28/32 50/60/35 51/61/38
f 29/27/33 32/30/36 52/62/39 49/59/34
f 23/12/44 22/11/46 42/43/47 43/42/45
