# Blender v3.1.2 OBJ File: 'tavoloWall.blend'
# www.blender.org
mtllib cornice.mtl
o Plane
v -3.035563 0.000000 3.016556
v 3.055028 0.000000 3.016556
v -3.035563 0.000000 -3.043774
v 3.055028 0.000000 -3.043774
l 3 1
l 1 2
l 2 4
l 4 3
o Plane.007
v 3.055028 -0.000000 3.016556
v 3.055028 0.000000 -3.043774
v -3.035563 0.000000 -3.043774
v -3.035563 -0.000000 3.016556
l 7 8
l 5 6
l 6 7
l 8 5
o Cube.003_Cube.012
v 2.999552 3.812423 2.941179
v 2.999552 3.812423 3.043091
v 2.999552 -0.023375 3.043091
v 2.999552 -0.023375 2.941179
v -2.907299 -0.023375 2.941181
v -2.907299 3.812423 2.941181
v -2.907299 -0.023375 3.043093
v -2.907299 3.812423 3.043093
l 11 12
l 9 10
l 11 10
l 12 9
l 12 13
l 9 14
l 11 15
l 10 16
l 14 16
l 15 16
l 13 14
l 13 15
o Plane.001
v -3.035563 0.000000 -3.043774
v -3.035563 -0.000000 3.016556
v 3.055028 -0.000000 3.016556
v 3.055028 0.000000 -3.043774
l 19 20
l 17 18
l 18 19
l 20 17
o Cube.003_Cube.004
v 2.999552 3.812423 2.941179
v 2.999552 3.812423 3.043091
v 2.999552 -0.023375 3.043091
v 2.999552 -0.023375 2.941179
v -2.907299 -0.023375 2.941181
v -2.907299 3.812423 2.941181
v -2.907299 -0.023375 3.043093
v -2.907299 3.812423 3.043093
l 23 24
l 21 22
l 23 22
l 24 21
l 24 25
l 21 26
l 23 27
l 22 28
l 26 28
l 27 28
l 25 26
l 25 27
o Plane.002
v 3.055028 -0.000000 3.016556
v 3.055028 0.000000 -3.043774
v -3.035563 0.000000 -3.043774
v -3.035563 -0.000000 3.016556
l 31 32
l 29 30
l 30 31
l 32 29
o Plane.003
v 3.055028 -0.000000 3.016556
v 3.055028 0.000000 -3.043774
v -3.035563 0.000000 -3.043774
v -3.035563 -0.000000 3.016556
l 35 36
l 33 34
l 34 35
l 36 33
o Cube.003_Cube.001
v 2.999552 -0.023375 3.043091
v 2.999552 -0.023375 2.941179
v 2.999552 3.812423 2.941179
v 2.999552 3.812423 3.043091
v -2.907299 -0.023375 2.941181
v -2.907299 3.812423 2.941181
v -2.907299 -0.023375 3.043093
v -2.907299 3.812423 3.043093
l 39 40
l 37 38
l 38 39
l 37 40
l 38 41
l 41 42
l 41 43
l 43 44
l 39 42
l 42 44
l 40 44
l 37 43
o Plane.004
v 3.055028 -0.000000 3.016556
v 3.055028 0.000000 -3.043774
v -3.035563 0.000000 -3.043774
v -3.035563 -0.000000 3.016556
l 47 48
l 45 46
l 46 47
l 48 45
o Cube.003_Cube.002
v 2.999552 -0.023375 3.043091
v 2.999552 -0.023375 2.941179
v 2.999552 3.812423 2.941179
v 2.999552 3.812423 3.043091
v -2.907299 -0.023375 2.941181
v -2.907299 3.812423 2.941181
v -2.907299 -0.023375 3.043093
v -2.907299 3.812423 3.043093
l 51 52
l 49 50
l 50 51
l 49 52
l 50 53
l 53 54
l 53 55
l 55 56
l 51 54
l 54 56
l 52 56
l 49 55
o Plane.005
v -3.035563 0.000000 -3.043774
v -3.035563 -0.000000 3.016556
v 3.055028 -0.000000 3.016556
v 3.055028 0.000000 -3.043774
l 59 60
l 57 58
l 58 59
l 60 57
o Plane.006
v 3.055028 -0.000000 3.016556
v 3.055028 0.000000 -3.043774
v -3.035563 0.000000 -3.043774
v -3.035563 -0.000000 3.016556
l 63 64
l 61 62
l 62 63
l 64 61
o Cube.003_Cube.003
v 2.999552 -0.023375 3.043091
v 2.999552 -0.023375 2.941179
v 2.999552 3.812423 2.941179
v 2.999552 3.812423 3.043091
v -2.907299 -0.023375 2.941181
v -2.907299 3.812423 2.941181
v -2.907299 -0.023375 3.043093
v -2.907299 3.812423 3.043093
l 67 68
l 65 66
l 66 67
l 65 68
l 66 69
l 69 70
l 69 71
l 71 72
l 67 70
l 70 72
l 68 72
l 65 71
o Plane.008
v -3.035563 0.000000 -3.043774
v -3.035563 -0.000000 3.016556
v 3.055028 -0.000000 3.016556
v 3.055028 0.000000 -3.043774
l 75 76
l 73 74
l 74 75
l 76 73
o Plane.009
v -3.035563 0.000000 -3.043774
v -3.035563 -0.000000 3.016556
v 3.055028 -0.000000 3.016556
v 3.055028 0.000000 -3.043774
l 79 80
l 77 78
l 78 79
l 80 77
o Cube.003_Cube.005
v 2.999552 3.812423 2.941179
v 2.999552 3.812423 3.043091
v 2.999552 -0.023375 3.043091
v 2.999552 -0.023375 2.941179
v -2.907299 -0.023375 2.941181
v -2.907299 3.812423 2.941181
v -2.907299 -0.023375 3.043093
v -2.907299 3.812423 3.043093
l 83 84
l 81 82
l 83 82
l 84 81
l 84 85
l 81 86
l 83 87
l 82 88
l 86 88
l 87 88
l 85 86
l 85 87
o Plane.010
v -3.035563 0.000000 -3.043774
v -3.035563 -0.000000 3.016556
v 3.055028 -0.000000 3.016556
v 3.055028 0.000000 -3.043774
l 91 92
l 89 90
l 90 91
l 92 89
o Cube.003_Cube.006
v 2.999552 3.812423 2.941179
v 2.999552 3.812423 3.043091
v 2.999552 -0.023375 3.043091
v 2.999552 -0.023375 2.941179
v -2.907299 -0.023375 2.941181
v -2.907299 3.812423 2.941181
v -2.907299 -0.023375 3.043093
v -2.907299 3.812423 3.043093
l 95 96
l 93 94
l 95 94
l 96 93
l 96 97
l 93 98
l 95 99
l 94 100
l 98 100
l 99 100
l 97 98
l 97 99
o Plane.011
v 3.055028 -0.000000 3.016556
v 3.055028 0.000000 -3.043774
v -3.035563 0.000000 -3.043774
v -3.035563 -0.000000 3.016556
l 103 104
l 101 102
l 102 103
l 104 101
o Plane.012
v -1.460826 2.342467 2.889584
v -0.732362 2.342467 2.891382
v -0.732362 2.342467 2.891382
v -1.460826 2.342467 2.889584
v -0.732891 1.528747 2.945879
v -0.732838 2.343942 2.940327
v -1.461299 2.343942 2.938529
v -1.461353 1.528747 2.944081
v -1.460880 1.527272 2.895137
v -0.732418 1.527272 2.896935
v -1.460880 1.527272 2.895137
v -1.460826 2.342467 2.889584
v -1.460880 1.527272 2.895137
v -0.732418 1.527272 2.896935
v -0.732362 2.342467 2.891382
v -0.732362 2.342467 2.891382
v -1.460826 2.342467 2.889584
v -0.732418 1.527272 2.896935
v -1.460880 1.527272 2.895137
v -0.732418 1.527272 2.896935
v -1.419514 1.573558 2.894924
v -0.773775 1.573558 2.896517
v -0.773728 2.296178 2.891595
v -1.419467 2.296178 2.890002
vt 1.000000 1.000000
vt 1.000000 0.000000
vt 1.000000 0.000000
vt 1.000000 1.000000
vt 0.000000 0.000000
vt 1.000000 0.000000
vt 1.000000 1.000000
vt 0.000000 1.000000
vt 0.000000 1.000000
vt 0.000000 0.000000
vt 0.000000 1.000000
vt 1.000000 1.000000
vt 0.000000 1.000000
vt 0.000000 0.000000
vt 1.000000 0.000000
vt 1.000000 0.000000
vt 1.000000 1.000000
vt 0.000000 0.000000
vt 0.000000 1.000000
vt 0.000000 0.000000
vt 0.056779 0.943221
vt 0.056779 0.056779
vt 0.000024 0.943199
vt 0.000024 0.056801
vt 0.056801 0.000024
vt 0.056801 0.999976
vt 0.943221 0.056779
vt 0.943221 0.943221
vn 0.0000 0.0000 1.0000
vn -0.0025 0.0068 1.0000
vn -1.0000 -0.0000 -0.0097
vn 1.0000 -0.0000 0.0097
vn 0.0001 0.9995 -0.0301
vn -0.0001 -0.9995 0.0301
vn 0.0025 -0.0068 -1.0000
g Plane.012_Plane.012_Material.001
usemtl Material.001
s 1
f 105/1/1 106/2/1 107/3/1 108/4/1
f 109/5/2 110/6/2 111/7/2 112/8/2
f 105/1/3 113/9/3 112/8/3 111/7/3
f 114/10/4 106/2/4 110/6/4 109/5/4
f 106/2/5 105/1/5 111/7/5 110/6/5
f 113/9/6 114/10/6 109/5/6 112/8/6
f 115/11/1 108/4/1 116/12/1 117/13/1
f 114/10/1 113/9/1 115/11/1 118/14/1
f 113/9/1 105/1/1 108/4/1 115/11/1
f 106/2/1 114/10/1 118/14/1 107/3/1
f 116/12/1 119/15/1 120/16/1 121/17/1
f 107/3/1 118/14/1 122/18/1 119/15/1
f 108/4/1 107/3/1 119/15/1 116/12/1
f 118/14/1 115/11/1 117/13/1 122/18/1
f 122/18/1 117/13/1 123/19/1 124/20/1
f 117/13/1 116/12/1 121/17/1 123/19/1
f 119/15/1 122/18/1 124/20/1 120/16/1
f 125/21/7 126/22/7 124/20/7 123/19/7
f 126/23/7 127/24/7 120/25/7 124/26/7
f 127/27/7 128/28/7 121/17/7 120/16/7
f 128/28/7 125/21/7 123/19/7 121/17/7
